# xmcd
#
# Track frame offsets:
#	150
#	17289
#	38009
#	55331
#	73938
#	89093
#	103822
#	117243
#	131403
#	151984
#	168000
#	183368
#	203039
#	211308
#	231224
#	243789
#	255288
#	274509
#	295993
#	313133
#
# Disc length: 4432 seconds
#
# Revision: 2
# Processed by: cddbd v1.5.2PL0 Copyright (c) Steve Scherf et al.
# Submitted via: EZCDAudioConverter 5.1.1.1
#
DISCID=12114e14
DTITLE=Compilation - The Ultimate Collection Country [Disc 3]
DYEAR=2014
DGENRE=Country
TTITLE0=Billy Currington - Let Me Down Easy
TTITLE1=Bobby Bare Jr. - I'll Be Around
TTITLE2=John Mellencamp - Paper In Fire
TTITLE3=Sugarland - Stuck Like Glue
TTITLE4=Whiskeytown - Don't Be Sad
TTITLE5=Toby Keith - Courtesy Of The Red, White and Blue
TTITLE6=Jim Stafford - Spiders and Snakes
TTITLE7=Devil In A Woodpile - A Long Way From Home
TTITLE8=Joe Ely - The Road Goes On Forever
TTITLE9=Dollar Store - North Central Plain
TTITLE10=The Bottle Rockets - The Long Way
TTITLE11=The Mavericks - Dance The Night Away
TTITLE12=Jon Langford - Living A Lie
TTITLE13=Old 97's - Big Brown Eyes
TTITLE14=Justin Townes Earle - Harlem River Blues
TTITLE15=Travis Tritt - Here's A Quarter (Call Someone Who Cares)
TTITLE16=Scott H. Biram - Sinkin' Down
TTITLE17=Waco Brothers - Fast Train Down
TTITLE18=Kirsty MacColl - Don't Come The Cowboy With Me Sunny Jim
TTITLE19=Jimmy Nail - Crocodile Shoes
EXTD=
EXTT0=
EXTT1=
EXTT2=
EXTT3=
EXTT4=
EXTT5=
EXTT6=
EXTT7=
EXTT8=
EXTT9=
EXTT10=
EXTT11=
EXTT12=
EXTT13=
EXTT14=
EXTT15=
EXTT16=
EXTT17=
EXTT18=
EXTT19=
PLAYORDER=
